<svg width="1141" height="942" viewBox="0 0 1141 942" fill="none" xmlns="http://www.w3.org/2000/svg">
<path d="M1028.48 405.228C1027.46 405.228 1026.4 405.057 1025.32 404.716C1024.25 404.374 1023.28 403.862 1022.4 403.18C1021.55 402.497 1020.92 401.654 1020.52 400.652L1024.52 399.468C1024.98 400.15 1025.54 400.652 1026.18 400.972C1026.84 401.292 1027.52 401.452 1028.23 401.452C1029.34 401.452 1030.23 401.121 1030.92 400.46C1031.62 399.777 1031.97 398.87 1031.97 397.74C1031.97 396.694 1031.63 395.82 1030.95 395.116C1030.29 394.412 1029.4 394.06 1028.29 394.06C1027.63 394.06 1027.02 394.209 1026.47 394.508C1025.91 394.806 1025.49 395.158 1025.19 395.564L1021.25 394.7L1022.6 382.444H1035.27V386.412H1023.24L1022.6 382.572H1026.95L1025.19 395.116L1022.85 394.7C1023.04 394.316 1023.34 393.9 1023.75 393.452C1024.15 392.982 1024.65 392.534 1025.25 392.108C1025.87 391.681 1026.56 391.34 1027.33 391.084C1028.1 390.828 1028.95 390.71 1029.89 390.732C1031.11 390.732 1032.22 391.03 1033.22 391.628C1034.22 392.204 1035.01 393.004 1035.59 394.028C1036.18 395.03 1036.48 396.204 1036.48 397.548C1036.48 399.062 1036.14 400.396 1035.46 401.548C1034.78 402.7 1033.84 403.606 1032.64 404.268C1031.45 404.908 1030.06 405.228 1028.48 405.228ZM1048.07 405.228C1046.26 405.228 1044.66 404.737 1043.27 403.756C1041.88 402.753 1040.79 401.388 1040.01 399.66C1039.22 397.91 1038.82 395.905 1038.82 393.644C1038.82 391.382 1039.22 389.388 1040.01 387.66C1040.79 385.91 1041.87 384.545 1043.24 383.564C1044.62 382.561 1046.22 382.06 1048.04 382.06C1049.85 382.06 1051.45 382.561 1052.84 383.564C1054.25 384.545 1055.34 385.91 1056.13 387.66C1056.92 389.388 1057.32 391.382 1057.32 393.644C1057.32 395.905 1056.92 397.91 1056.13 399.66C1055.34 401.388 1054.26 402.753 1052.87 403.756C1051.48 404.737 1049.88 405.228 1048.07 405.228ZM1048.07 401.26C1049.03 401.26 1049.88 400.94 1050.63 400.3C1051.4 399.638 1051.99 398.742 1052.42 397.612C1052.85 396.46 1053.06 395.137 1053.06 393.644C1053.06 392.15 1052.85 390.828 1052.42 389.676C1051.99 388.524 1051.4 387.628 1050.63 386.988C1049.88 386.326 1049.02 385.996 1048.04 385.996C1047.08 385.996 1046.22 386.326 1045.48 386.988C1044.73 387.628 1044.14 388.524 1043.72 389.676C1043.31 390.828 1043.11 392.15 1043.11 393.644C1043.11 395.137 1043.31 396.46 1043.72 397.612C1044.14 398.742 1044.73 399.638 1045.48 400.3C1046.25 400.94 1047.11 401.26 1048.07 401.26ZM1061.33 404.844L1077.24 382.444H1081.46L1065.46 404.844H1061.33ZM1077.94 405.324C1076.94 405.324 1076.04 405.089 1075.25 404.62C1074.46 404.15 1073.84 403.5 1073.4 402.668C1072.97 401.814 1072.76 400.854 1072.76 399.788C1072.76 398.7 1072.97 397.74 1073.4 396.908C1073.84 396.076 1074.46 395.425 1075.25 394.956C1076.04 394.486 1076.94 394.252 1077.94 394.252C1078.96 394.252 1079.86 394.497 1080.63 394.988C1081.42 395.457 1082.04 396.108 1082.48 396.94C1082.93 397.75 1083.16 398.7 1083.16 399.788C1083.16 400.854 1082.93 401.814 1082.48 402.668C1082.04 403.5 1081.42 404.15 1080.63 404.62C1079.86 405.089 1078.96 405.324 1077.94 405.324ZM1077.94 402.508C1078.6 402.508 1079.13 402.252 1079.54 401.74C1079.94 401.206 1080.15 400.556 1080.15 399.788C1080.15 399.02 1079.94 398.38 1079.54 397.868C1079.13 397.334 1078.6 397.068 1077.94 397.068C1077.3 397.068 1076.77 397.334 1076.34 397.868C1075.93 398.38 1075.73 399.02 1075.73 399.788C1075.73 400.556 1075.93 401.206 1076.34 401.74C1076.77 402.252 1077.3 402.508 1077.94 402.508ZM1064.98 393.004C1063.96 393.004 1063.05 392.769 1062.26 392.3C1061.49 391.83 1060.88 391.18 1060.44 390.348C1059.99 389.494 1059.76 388.534 1059.76 387.468C1059.76 386.38 1059.98 385.42 1060.4 384.588C1060.85 383.756 1061.47 383.105 1062.26 382.636C1063.05 382.166 1063.96 381.932 1064.98 381.932C1066 381.932 1066.9 382.177 1067.67 382.668C1068.46 383.137 1069.06 383.788 1069.49 384.62C1069.94 385.43 1070.16 386.38 1070.16 387.468C1070.16 388.534 1069.94 389.494 1069.49 390.348C1069.06 391.18 1068.46 391.83 1067.67 392.3C1066.88 392.769 1065.98 393.004 1064.98 393.004ZM1064.95 390.188C1065.61 390.188 1066.14 389.932 1066.55 389.42C1066.97 388.886 1067.19 388.236 1067.19 387.468C1067.19 386.7 1066.97 386.06 1066.55 385.548C1066.14 385.036 1065.61 384.78 1064.95 384.78C1064.31 384.78 1063.78 385.036 1063.38 385.548C1062.97 386.06 1062.77 386.7 1062.77 387.468C1062.77 388.236 1062.97 388.886 1063.38 389.42C1063.78 389.932 1064.31 390.188 1064.95 390.188Z" fill="white"/>
<path d="M1021.24 435.844V419.044H1023.6V435.844H1021.24ZM1023.21 435.844V433.684H1031.4V435.844H1023.21ZM1023.21 428.308V426.196H1030.58V428.308H1023.21ZM1023.21 421.204V419.044H1031.35V421.204H1023.21ZM1040.34 436.132C1039.14 436.132 1038.08 435.868 1037.15 435.34C1036.22 434.796 1035.5 434.052 1034.97 433.108C1034.46 432.164 1034.2 431.076 1034.2 429.844C1034.2 428.612 1034.46 427.524 1034.97 426.58C1035.5 425.636 1036.22 424.9 1037.13 424.372C1038.06 423.828 1039.11 423.556 1040.3 423.556C1041.46 423.556 1042.51 423.828 1043.44 424.372C1044.38 424.916 1045.09 425.692 1045.55 426.7L1043.49 427.564C1043.18 426.972 1042.74 426.508 1042.17 426.172C1041.61 425.836 1040.96 425.668 1040.22 425.668C1039.5 425.668 1038.86 425.844 1038.3 426.196C1037.74 426.548 1037.3 427.044 1036.98 427.684C1036.66 428.308 1036.5 429.028 1036.5 429.844C1036.5 430.66 1036.66 431.38 1036.98 432.004C1037.3 432.628 1037.75 433.124 1038.33 433.492C1038.9 433.844 1039.55 434.02 1040.27 434.02C1041.01 434.02 1041.66 433.836 1042.24 433.468C1042.82 433.084 1043.25 432.572 1043.54 431.932L1045.62 432.772C1045.16 433.828 1044.46 434.652 1043.51 435.244C1042.58 435.836 1041.53 436.132 1040.34 436.132ZM1053.3 436.132C1052.1 436.132 1051.05 435.868 1050.13 435.34C1049.22 434.796 1048.5 434.052 1047.97 433.108C1047.46 432.164 1047.21 431.076 1047.21 429.844C1047.21 428.612 1047.46 427.524 1047.97 426.58C1048.49 425.636 1049.2 424.9 1050.11 424.372C1051.02 423.828 1052.07 423.556 1053.25 423.556C1054.44 423.556 1055.49 423.828 1056.4 424.372C1057.31 424.9 1058.02 425.636 1058.53 426.58C1059.05 427.524 1059.3 428.612 1059.3 429.844C1059.3 431.076 1059.05 432.164 1058.53 433.108C1058.02 434.052 1057.31 434.796 1056.4 435.34C1055.5 435.868 1054.47 436.132 1053.3 436.132ZM1053.3 434.044C1054.02 434.044 1054.66 433.868 1055.22 433.516C1055.78 433.148 1056.21 432.652 1056.52 432.028C1056.84 431.404 1057 430.676 1057 429.844C1057 429.012 1056.84 428.284 1056.52 427.66C1056.21 427.036 1055.77 426.548 1055.2 426.196C1054.62 425.828 1053.97 425.644 1053.25 425.644C1052.52 425.644 1051.87 425.828 1051.31 426.196C1050.75 426.548 1050.31 427.036 1049.99 427.66C1049.67 428.284 1049.51 429.012 1049.51 429.844C1049.51 430.676 1049.67 431.404 1049.99 432.028C1050.31 432.652 1050.76 433.148 1051.33 433.516C1051.91 433.868 1052.57 434.044 1053.3 434.044ZM1066.1 436.132C1065.25 436.132 1064.49 436.004 1063.82 435.748C1063.16 435.492 1062.6 435.148 1062.14 434.716C1061.69 434.284 1061.35 433.796 1061.13 433.252L1063.1 432.388C1063.35 432.884 1063.74 433.292 1064.25 433.612C1064.76 433.932 1065.33 434.092 1065.95 434.092C1066.64 434.092 1067.21 433.964 1067.66 433.708C1068.1 433.452 1068.33 433.092 1068.33 432.628C1068.33 432.18 1068.16 431.828 1067.82 431.572C1067.49 431.316 1067 431.108 1066.36 430.948L1065.23 430.66C1064.11 430.356 1063.24 429.9 1062.62 429.292C1062.01 428.684 1061.7 427.996 1061.7 427.228C1061.7 426.06 1062.08 425.156 1062.83 424.516C1063.58 423.876 1064.7 423.556 1066.17 423.556C1066.89 423.556 1067.54 423.66 1068.14 423.868C1068.74 424.076 1069.26 424.372 1069.67 424.756C1070.1 425.14 1070.41 425.596 1070.58 426.124L1068.66 426.988C1068.47 426.508 1068.14 426.156 1067.68 425.932C1067.22 425.692 1066.67 425.572 1066.05 425.572C1065.41 425.572 1064.9 425.716 1064.54 426.004C1064.17 426.276 1063.98 426.66 1063.98 427.156C1063.98 427.428 1064.14 427.692 1064.44 427.948C1064.76 428.188 1065.22 428.388 1065.83 428.548L1067.13 428.86C1067.91 429.052 1068.56 429.348 1069.07 429.748C1069.58 430.132 1069.97 430.572 1070.22 431.068C1070.48 431.548 1070.61 432.052 1070.61 432.58C1070.61 433.3 1070.41 433.932 1070.01 434.476C1069.62 435.004 1069.09 435.412 1068.4 435.7C1067.73 435.988 1066.96 436.132 1066.1 436.132ZM1074.44 440.932C1074.09 440.932 1073.7 440.868 1073.27 440.74C1072.85 440.612 1072.42 440.444 1071.97 440.236L1072.81 438.364C1073.16 438.524 1073.47 438.644 1073.72 438.724C1074 438.804 1074.21 438.844 1074.37 438.844C1074.77 438.844 1075.11 438.732 1075.38 438.508C1075.67 438.284 1075.9 437.972 1076.08 437.572L1077.47 434.284L1081.74 423.844H1084.19L1078.5 437.332C1078.2 438.068 1077.88 438.708 1077.54 439.252C1077.2 439.796 1076.79 440.212 1076.29 440.5C1075.81 440.788 1075.2 440.932 1074.44 440.932ZM1076.84 435.844L1071.59 423.844H1074.01L1078.36 434.26L1079.05 435.844H1076.84ZM1090.24 436.132C1089.39 436.132 1088.63 436.004 1087.96 435.748C1087.3 435.492 1086.74 435.148 1086.28 434.716C1085.83 434.284 1085.49 433.796 1085.27 433.252L1087.24 432.388C1087.49 432.884 1087.88 433.292 1088.39 433.612C1088.9 433.932 1089.47 434.092 1090.09 434.092C1090.78 434.092 1091.35 433.964 1091.8 433.708C1092.25 433.452 1092.47 433.092 1092.47 432.628C1092.47 432.18 1092.3 431.828 1091.97 431.572C1091.63 431.316 1091.14 431.108 1090.5 430.948L1089.37 430.66C1088.25 430.356 1087.38 429.9 1086.76 429.292C1086.15 428.684 1085.85 427.996 1085.85 427.228C1085.85 426.06 1086.22 425.156 1086.97 424.516C1087.73 423.876 1088.84 423.556 1090.31 423.556C1091.03 423.556 1091.69 423.66 1092.28 423.868C1092.89 424.076 1093.4 424.372 1093.81 424.756C1094.25 425.14 1094.55 425.596 1094.73 426.124L1092.81 426.988C1092.61 426.508 1092.29 426.156 1091.82 425.932C1091.36 425.692 1090.81 425.572 1090.19 425.572C1089.55 425.572 1089.05 425.716 1088.68 426.004C1088.31 426.276 1088.13 426.66 1088.13 427.156C1088.13 427.428 1088.28 427.692 1088.58 427.948C1088.9 428.188 1089.37 428.388 1089.97 428.548L1091.27 428.86C1092.05 429.052 1092.7 429.348 1093.21 429.748C1093.73 430.132 1094.11 430.572 1094.37 431.068C1094.62 431.548 1094.75 432.052 1094.75 432.58C1094.75 433.3 1094.55 433.932 1094.15 434.476C1093.77 435.004 1093.23 435.412 1092.54 435.7C1091.87 435.988 1091.1 436.132 1090.24 436.132ZM1101.75 436.132C1100.55 436.132 1099.63 435.828 1098.97 435.22C1098.31 434.596 1097.99 433.708 1097.99 432.556V420.1H1100.27V432.22C1100.27 432.812 1100.41 433.268 1100.7 433.588C1101 433.892 1101.43 434.044 1101.99 434.044C1102.15 434.044 1102.33 434.012 1102.52 433.948C1102.71 433.884 1102.95 433.756 1103.22 433.564L1104.08 435.34C1103.67 435.612 1103.27 435.812 1102.88 435.94C1102.51 436.068 1102.14 436.132 1101.75 436.132ZM1095.95 425.812V423.844H1103.67V425.812H1095.95ZM1111.54 436.132C1110.37 436.132 1109.34 435.868 1108.45 435.34C1107.55 434.796 1106.85 434.052 1106.33 433.108C1105.82 432.164 1105.57 431.076 1105.57 429.844C1105.57 428.612 1105.82 427.524 1106.33 426.58C1106.85 425.636 1107.55 424.9 1108.45 424.372C1109.36 423.828 1110.4 423.556 1111.57 423.556C1112.65 423.556 1113.61 423.836 1114.45 424.396C1115.29 424.94 1115.95 425.724 1116.41 426.748C1116.89 427.756 1117.13 428.948 1117.13 430.324H1114.85C1114.87 429.3 1114.74 428.436 1114.47 427.732C1114.21 427.028 1113.83 426.5 1113.32 426.148C1112.82 425.78 1112.22 425.596 1111.52 425.596C1110.77 425.596 1110.12 425.772 1109.57 426.124C1109.03 426.46 1108.61 426.948 1108.3 427.588C1108.01 428.212 1107.87 428.98 1107.87 429.892C1107.87 430.74 1108.04 431.476 1108.37 432.1C1108.71 432.708 1109.17 433.188 1109.74 433.54C1110.32 433.876 1110.97 434.044 1111.71 434.044C1112.49 434.044 1113.14 433.86 1113.65 433.492C1114.18 433.124 1114.6 432.652 1114.9 432.076L1116.94 433.012C1116.62 433.636 1116.21 434.188 1115.69 434.668C1115.18 435.132 1114.57 435.492 1113.87 435.748C1113.18 436.004 1112.41 436.132 1111.54 436.132ZM1107.05 430.324L1107.08 428.452H1115.86V430.324H1107.05ZM1119.39 435.844V423.844H1121.52L1121.67 426.052V435.844H1119.39ZM1127.69 435.844V429.7L1129.97 428.98V435.844H1127.69ZM1135.99 435.844V429.7L1138.25 428.98V435.844H1135.99ZM1127.69 429.7C1127.69 428.612 1127.56 427.788 1127.31 427.228C1127.07 426.652 1126.72 426.252 1126.27 426.028C1125.84 425.804 1125.34 425.684 1124.76 425.668C1123.79 425.668 1123.03 426.012 1122.48 426.7C1121.94 427.388 1121.67 428.356 1121.67 429.604H1120.68C1120.68 428.34 1120.87 427.26 1121.23 426.364C1121.6 425.452 1122.13 424.756 1122.82 424.276C1123.52 423.796 1124.36 423.556 1125.34 423.556C1126.78 423.556 1127.91 424.004 1128.72 424.9C1129.55 425.78 1129.97 427.14 1129.97 428.98L1127.69 429.7ZM1135.99 429.7C1135.99 428.612 1135.87 427.788 1135.61 427.228C1135.35 426.652 1135.01 426.252 1134.58 426.028C1134.15 425.804 1133.64 425.684 1133.07 425.668C1132.09 425.668 1131.33 426.012 1130.79 426.7C1130.24 427.388 1129.97 428.356 1129.97 429.604H1128.99C1128.99 428.34 1129.17 427.26 1129.54 426.364C1129.91 425.452 1130.43 424.756 1131.12 424.276C1131.83 423.796 1132.67 423.556 1133.64 423.556C1135.08 423.556 1136.21 424.004 1137.03 424.9C1137.86 425.78 1138.27 427.14 1138.25 428.98L1135.99 429.7Z" fill="white"/>
<path d="M383.347 904.844V884.78L383.763 882.444H387.539L387.507 904.844H383.347ZM378.611 889.516V885.548C379.145 885.59 379.721 885.462 380.339 885.164C380.958 884.844 381.566 884.438 382.163 883.948C382.782 883.436 383.315 882.924 383.763 882.412L386.547 885.132C385.779 885.985 384.969 886.764 384.115 887.468C383.262 888.15 382.377 888.684 381.459 889.068C380.563 889.452 379.614 889.601 378.611 889.516ZM400.975 905.228C399.162 905.228 397.562 904.737 396.175 903.756C394.789 902.753 393.701 901.388 392.911 899.66C392.122 897.91 391.727 895.905 391.727 893.644C391.727 891.382 392.122 889.388 392.911 887.66C393.701 885.91 394.778 884.545 396.143 883.564C397.53 882.561 399.13 882.06 400.943 882.06C402.757 882.06 404.357 882.561 405.743 883.564C407.151 884.545 408.25 885.91 409.039 887.66C409.829 889.388 410.223 891.382 410.223 893.644C410.223 895.905 409.829 897.91 409.039 899.66C408.25 901.388 407.162 902.753 405.775 903.756C404.389 904.737 402.789 905.228 400.975 905.228ZM400.975 901.26C401.935 901.26 402.789 900.94 403.535 900.3C404.303 899.638 404.901 898.742 405.327 897.612C405.754 896.46 405.967 895.137 405.967 893.644C405.967 892.15 405.754 890.828 405.327 889.676C404.901 888.524 404.303 887.628 403.535 886.988C402.789 886.326 401.925 885.996 400.943 885.996C399.983 885.996 399.13 886.326 398.383 886.988C397.637 887.628 397.05 888.524 396.623 889.676C396.218 890.828 396.015 892.15 396.015 893.644C396.015 895.137 396.218 896.46 396.623 897.612C397.05 898.742 397.637 899.638 398.383 900.3C399.151 900.94 400.015 901.26 400.975 901.26ZM414.237 904.844L430.141 882.444H434.365L418.365 904.844H414.237ZM430.845 905.324C429.843 905.324 428.947 905.089 428.157 904.62C427.368 904.15 426.749 903.5 426.301 902.668C425.875 901.814 425.661 900.854 425.661 899.788C425.661 898.7 425.875 897.74 426.301 896.908C426.749 896.076 427.368 895.425 428.157 894.956C428.947 894.486 429.843 894.252 430.845 894.252C431.869 894.252 432.765 894.497 433.533 894.988C434.323 895.457 434.941 896.108 435.389 896.94C435.837 897.75 436.061 898.7 436.061 899.788C436.061 900.854 435.837 901.814 435.389 902.668C434.941 903.5 434.323 904.15 433.533 904.62C432.765 905.089 431.869 905.324 430.845 905.324ZM430.845 902.508C431.507 902.508 432.04 902.252 432.445 901.74C432.851 901.206 433.053 900.556 433.053 899.788C433.053 899.02 432.851 898.38 432.445 897.868C432.04 897.334 431.507 897.068 430.845 897.068C430.205 897.068 429.672 897.334 429.245 897.868C428.84 898.38 428.637 899.02 428.637 899.788C428.637 900.556 428.84 901.206 429.245 901.74C429.672 902.252 430.205 902.508 430.845 902.508ZM417.885 893.004C416.861 893.004 415.955 892.769 415.165 892.3C414.397 891.83 413.789 891.18 413.341 890.348C412.893 889.494 412.669 888.534 412.669 887.468C412.669 886.38 412.883 885.42 413.309 884.588C413.757 883.756 414.376 883.105 415.165 882.636C415.955 882.166 416.861 881.932 417.885 881.932C418.909 881.932 419.805 882.177 420.573 882.668C421.363 883.137 421.971 883.788 422.397 884.62C422.845 885.43 423.069 886.38 423.069 887.468C423.069 888.534 422.845 889.494 422.397 890.348C421.971 891.18 421.363 891.83 420.573 892.3C419.784 892.769 418.888 893.004 417.885 893.004ZM417.853 890.188C418.515 890.188 419.048 889.932 419.453 889.42C419.88 888.886 420.093 888.236 420.093 887.468C420.093 886.7 419.88 886.06 419.453 885.548C419.048 885.036 418.515 884.78 417.853 884.78C417.213 884.78 416.691 885.036 416.285 885.548C415.88 886.06 415.677 886.7 415.677 887.468C415.677 888.236 415.88 888.886 416.285 889.42C416.691 889.932 417.213 890.188 417.853 890.188Z" fill="white"/>
<path d="M381.427 929.412V927.252H385.123C385.699 927.252 386.211 927.124 386.659 926.868C387.123 926.596 387.491 926.236 387.763 925.788C388.051 925.324 388.195 924.804 388.195 924.228C388.195 923.332 387.883 922.604 387.259 922.044C386.635 921.484 385.827 921.204 384.835 921.204H381.427V919.044L384.907 919.02C386.027 919.004 387.011 919.22 387.859 919.668C388.723 920.116 389.395 920.732 389.875 921.516C390.371 922.3 390.619 923.204 390.619 924.228C390.619 925.236 390.355 926.132 389.827 926.916C389.315 927.7 388.611 928.316 387.715 928.764C386.819 929.196 385.811 929.412 384.691 929.412H381.427ZM379.243 935.844V919.044H381.595V935.844H379.243ZM388.627 935.844L384.643 928.98L386.515 927.732L391.291 935.844H388.627ZM399.136 936.132C397.968 936.132 396.936 935.868 396.04 935.34C395.144 934.796 394.44 934.052 393.928 933.108C393.416 932.164 393.16 931.076 393.16 929.844C393.16 928.612 393.416 927.524 393.928 926.58C394.44 925.636 395.144 924.9 396.04 924.372C396.952 923.828 397.992 923.556 399.16 923.556C400.248 923.556 401.208 923.836 402.04 924.396C402.888 924.94 403.544 925.724 404.008 926.748C404.488 927.756 404.728 928.948 404.728 930.324H402.448C402.464 929.3 402.336 928.436 402.064 927.732C401.808 927.028 401.424 926.5 400.912 926.148C400.416 925.78 399.816 925.596 399.112 925.596C398.36 925.596 397.712 925.772 397.168 926.124C396.624 926.46 396.2 926.948 395.896 927.588C395.608 928.212 395.464 928.98 395.464 929.892C395.464 930.74 395.632 931.476 395.968 932.1C396.304 932.708 396.76 933.188 397.336 933.54C397.912 933.876 398.568 934.044 399.304 934.044C400.088 934.044 400.736 933.86 401.248 933.492C401.776 933.124 402.192 932.652 402.496 932.076L404.536 933.012C404.216 933.636 403.8 934.188 403.288 934.668C402.776 935.132 402.168 935.492 401.464 935.748C400.776 936.004 400 936.132 399.136 936.132ZM394.648 930.324L394.672 928.452H403.456V930.324H394.648ZM411.276 936.132C410.428 936.132 409.668 936.004 408.996 935.748C408.34 935.492 407.78 935.148 407.316 934.716C406.868 934.284 406.532 933.796 406.308 933.252L408.276 932.388C408.532 932.884 408.916 933.292 409.428 933.612C409.94 933.932 410.508 934.092 411.132 934.092C411.82 934.092 412.388 933.964 412.836 933.708C413.284 933.452 413.508 933.092 413.508 932.628C413.508 932.18 413.34 931.828 413.004 931.572C412.668 931.316 412.18 931.108 411.54 930.948L410.412 930.66C409.292 930.356 408.42 929.9 407.796 929.292C407.188 928.684 406.884 927.996 406.884 927.228C406.884 926.06 407.26 925.156 408.012 924.516C408.764 923.876 409.876 923.556 411.348 923.556C412.068 923.556 412.724 923.66 413.316 923.868C413.924 924.076 414.436 924.372 414.852 924.756C415.284 925.14 415.588 925.596 415.764 926.124L413.844 926.988C413.652 926.508 413.324 926.156 412.86 925.932C412.396 925.692 411.852 925.572 411.228 925.572C410.588 925.572 410.084 925.716 409.716 926.004C409.348 926.276 409.164 926.66 409.164 927.156C409.164 927.428 409.316 927.692 409.62 927.948C409.94 928.188 410.404 928.388 411.012 928.548L412.308 928.86C413.092 929.052 413.74 929.348 414.252 929.748C414.764 930.132 415.148 930.572 415.404 931.068C415.66 931.548 415.788 932.052 415.788 932.58C415.788 933.3 415.588 933.932 415.188 934.476C414.804 935.004 414.268 935.412 413.58 935.7C412.908 935.988 412.14 936.132 411.276 936.132ZM423.464 936.132C422.296 936.132 421.264 935.868 420.368 935.34C419.472 934.796 418.768 934.052 418.256 933.108C417.744 932.164 417.488 931.076 417.488 929.844C417.488 928.612 417.744 927.524 418.256 926.58C418.768 925.636 419.472 924.9 420.368 924.372C421.28 923.828 422.32 923.556 423.488 923.556C424.576 923.556 425.536 923.836 426.368 924.396C427.216 924.94 427.872 925.724 428.336 926.748C428.816 927.756 429.056 928.948 429.056 930.324H426.776C426.792 929.3 426.664 928.436 426.392 927.732C426.136 927.028 425.752 926.5 425.24 926.148C424.744 925.78 424.144 925.596 423.44 925.596C422.688 925.596 422.04 925.772 421.496 926.124C420.952 926.46 420.528 926.948 420.224 927.588C419.936 928.212 419.792 928.98 419.792 929.892C419.792 930.74 419.96 931.476 420.296 932.1C420.632 932.708 421.088 933.188 421.664 933.54C422.24 933.876 422.896 934.044 423.632 934.044C424.416 934.044 425.064 933.86 425.576 933.492C426.104 933.124 426.52 932.652 426.824 932.076L428.864 933.012C428.544 933.636 428.128 934.188 427.616 934.668C427.104 935.132 426.496 935.492 425.792 935.748C425.104 936.004 424.328 936.132 423.464 936.132ZM418.976 930.324L419 928.452H427.784V930.324H418.976ZM432.701 929.388C432.701 928.092 432.949 927.036 433.445 926.22C433.941 925.404 434.581 924.796 435.365 924.396C436.149 923.996 436.973 923.796 437.837 923.796V925.956C437.117 925.956 436.429 926.068 435.773 926.292C435.133 926.5 434.605 926.852 434.189 927.348C433.789 927.828 433.589 928.484 433.589 929.316L432.701 929.388ZM431.309 935.844V923.844H433.589V935.844H431.309ZM443.444 935.844L448.244 923.844H450.62L445.604 935.844H443.444ZM443.3 935.844L438.308 923.844H440.636L445.436 935.844H443.3ZM457.402 936.132C456.234 936.132 455.202 935.868 454.306 935.34C453.41 934.796 452.706 934.052 452.194 933.108C451.682 932.164 451.426 931.076 451.426 929.844C451.426 928.612 451.682 927.524 452.194 926.58C452.706 925.636 453.41 924.9 454.306 924.372C455.218 923.828 456.258 923.556 457.426 923.556C458.514 923.556 459.474 923.836 460.306 924.396C461.154 924.94 461.81 925.724 462.274 926.748C462.754 927.756 462.994 928.948 462.994 930.324H460.714C460.73 929.3 460.602 928.436 460.33 927.732C460.074 927.028 459.69 926.5 459.178 926.148C458.682 925.78 458.082 925.596 457.378 925.596C456.626 925.596 455.978 925.772 455.434 926.124C454.89 926.46 454.466 926.948 454.162 927.588C453.874 928.212 453.73 928.98 453.73 929.892C453.73 930.74 453.898 931.476 454.234 932.1C454.57 932.708 455.026 933.188 455.602 933.54C456.178 933.876 456.834 934.044 457.57 934.044C458.354 934.044 459.002 933.86 459.514 933.492C460.042 933.124 460.458 932.652 460.762 932.076L462.802 933.012C462.482 933.636 462.066 934.188 461.554 934.668C461.042 935.132 460.434 935.492 459.73 935.748C459.042 936.004 458.266 936.132 457.402 936.132ZM452.914 930.324L452.938 928.452H461.722V930.324H452.914Z" fill="white"/>
<path d="M6.34742 578.844V558.78L6.76342 556.444H10.5394L10.5074 578.844H6.34742ZM1.61142 563.516V559.548C2.14476 559.59 2.72076 559.462 3.33942 559.164C3.95809 558.844 4.56609 558.438 5.16342 557.948C5.78209 557.436 6.31542 556.924 6.76342 556.412L9.54742 559.132C8.77942 559.985 7.96876 560.764 7.11542 561.468C6.26209 562.15 5.37676 562.684 4.45942 563.068C3.56342 563.452 2.61409 563.601 1.61142 563.516ZM19.8474 578.844V558.78L20.2634 556.444H24.0394L24.0074 578.844H19.8474ZM15.1114 563.516V559.548C15.6448 559.59 16.2208 559.462 16.8394 559.164C17.4581 558.844 18.0661 558.438 18.6634 557.948C19.2821 557.436 19.8154 556.924 20.2634 556.412L23.0474 559.132C22.2794 559.985 21.4688 560.764 20.6154 561.468C19.7621 562.15 18.8768 562.684 17.9594 563.068C17.0634 563.452 16.1141 563.601 15.1114 563.516ZM29.9874 578.844L45.8914 556.444H50.1154L34.1154 578.844H29.9874ZM46.5954 579.324C45.5928 579.324 44.6968 579.089 43.9074 578.62C43.1181 578.15 42.4994 577.5 42.0514 576.668C41.6248 575.814 41.4114 574.854 41.4114 573.788C41.4114 572.7 41.6248 571.74 42.0514 570.908C42.4994 570.076 43.1181 569.425 43.9074 568.956C44.6968 568.486 45.5928 568.252 46.5954 568.252C47.6194 568.252 48.5154 568.497 49.2834 568.988C50.0728 569.457 50.6914 570.108 51.1394 570.94C51.5874 571.75 51.8114 572.7 51.8114 573.788C51.8114 574.854 51.5874 575.814 51.1394 576.668C50.6914 577.5 50.0728 578.15 49.2834 578.62C48.5154 579.089 47.6194 579.324 46.5954 579.324ZM46.5954 576.508C47.2568 576.508 47.7901 576.252 48.1954 575.74C48.6008 575.206 48.8034 574.556 48.8034 573.788C48.8034 573.02 48.6008 572.38 48.1954 571.868C47.7901 571.334 47.2568 571.068 46.5954 571.068C45.9554 571.068 45.4221 571.334 44.9954 571.868C44.5901 572.38 44.3874 573.02 44.3874 573.788C44.3874 574.556 44.5901 575.206 44.9954 575.74C45.4221 576.252 45.9554 576.508 46.5954 576.508ZM33.6354 567.004C32.6114 567.004 31.7048 566.769 30.9154 566.3C30.1474 565.83 29.5394 565.18 29.0914 564.348C28.6434 563.494 28.4194 562.534 28.4194 561.468C28.4194 560.38 28.6328 559.42 29.0594 558.588C29.5074 557.756 30.1261 557.105 30.9154 556.636C31.7048 556.166 32.6114 555.932 33.6354 555.932C34.6594 555.932 35.5554 556.177 36.3234 556.668C37.1128 557.137 37.7208 557.788 38.1474 558.62C38.5954 559.43 38.8194 560.38 38.8194 561.468C38.8194 562.534 38.5954 563.494 38.1474 564.348C37.7208 565.18 37.1128 565.83 36.3234 566.3C35.5341 566.769 34.6381 567.004 33.6354 567.004ZM33.6034 564.188C34.2648 564.188 34.7981 563.932 35.2034 563.42C35.6301 562.886 35.8434 562.236 35.8434 561.468C35.8434 560.7 35.6301 560.06 35.2034 559.548C34.7981 559.036 34.2648 558.78 33.6034 558.78C32.9634 558.78 32.4408 559.036 32.0354 559.548C31.6301 560.06 31.4274 560.7 31.4274 561.468C31.4274 562.236 31.6301 562.886 32.0354 563.42C32.4408 563.932 32.9634 564.188 33.6034 564.188Z" fill="white"/>
<path d="M5.65142 609.844V594.436H8.02742V609.844H5.65142ZM0.395422 595.204V593.044H13.2834V595.204H0.395422ZM19.0685 610.132C17.8685 610.132 16.8125 609.868 15.9005 609.34C14.9885 608.796 14.2685 608.052 13.7405 607.108C13.2285 606.164 12.9725 605.076 12.9725 603.844C12.9725 602.612 13.2285 601.524 13.7405 600.58C14.2525 599.636 14.9645 598.9 15.8765 598.372C16.7885 597.828 17.8365 597.556 19.0205 597.556C20.2045 597.556 21.2525 597.828 22.1645 598.372C23.0765 598.9 23.7885 599.636 24.3005 600.58C24.8125 601.524 25.0685 602.612 25.0685 603.844C25.0685 605.076 24.8125 606.164 24.3005 607.108C23.7885 608.052 23.0765 608.796 22.1645 609.34C21.2685 609.868 20.2365 610.132 19.0685 610.132ZM19.0685 608.044C19.7885 608.044 20.4285 607.868 20.9885 607.516C21.5485 607.148 21.9805 606.652 22.2845 606.028C22.6045 605.404 22.7645 604.676 22.7645 603.844C22.7645 603.012 22.6045 602.284 22.2845 601.66C21.9805 601.036 21.5405 600.548 20.9645 600.196C20.3885 599.828 19.7405 599.644 19.0205 599.644C18.2845 599.644 17.6365 599.828 17.0765 600.196C16.5165 600.548 16.0765 601.036 15.7565 601.66C15.4365 602.284 15.2765 603.012 15.2765 603.844C15.2765 604.676 15.4365 605.404 15.7565 606.028C16.0765 606.652 16.5245 607.148 17.1005 607.516C17.6765 607.868 18.3325 608.044 19.0685 608.044ZM29.7744 606.22L28.3584 604.66L34.6704 597.844H37.4544L29.7744 606.22ZM27.5664 609.844V593.044H29.8464V609.844H27.5664ZM35.1744 609.844L30.7584 603.268L32.2464 601.684L37.9104 609.844H35.1744ZM44.5189 610.132C43.3509 610.132 42.3189 609.868 41.4229 609.34C40.5269 608.796 39.8229 608.052 39.3109 607.108C38.7989 606.164 38.5429 605.076 38.5429 603.844C38.5429 602.612 38.7989 601.524 39.3109 600.58C39.8229 599.636 40.5269 598.9 41.4229 598.372C42.3349 597.828 43.3749 597.556 44.5429 597.556C45.6309 597.556 46.5909 597.836 47.4229 598.396C48.2709 598.94 48.9269 599.724 49.3909 600.748C49.8709 601.756 50.1109 602.948 50.1109 604.324H47.8309C47.8469 603.3 47.7189 602.436 47.4469 601.732C47.1909 601.028 46.8069 600.5 46.2949 600.148C45.7989 599.78 45.1989 599.596 44.4949 599.596C43.7429 599.596 43.0949 599.772 42.5509 600.124C42.0069 600.46 41.5829 600.948 41.2789 601.588C40.9909 602.212 40.8469 602.98 40.8469 603.892C40.8469 604.74 41.0149 605.476 41.3509 606.1C41.6869 606.708 42.1429 607.188 42.7189 607.54C43.2949 607.876 43.9509 608.044 44.6869 608.044C45.4709 608.044 46.1189 607.86 46.6309 607.492C47.1589 607.124 47.5749 606.652 47.8789 606.076L49.9189 607.012C49.5989 607.636 49.1829 608.188 48.6709 608.668C48.1589 609.132 47.5509 609.492 46.8469 609.748C46.1589 610.004 45.3829 610.132 44.5189 610.132ZM40.0309 604.324L40.0549 602.452H48.8389V604.324H40.0309ZM52.3633 609.844V597.844H54.4993L54.6433 600.052V609.844H52.3633ZM60.6673 609.844V603.7L62.9473 602.98V609.844H60.6673ZM60.6673 603.7C60.6673 602.612 60.5393 601.788 60.2833 601.228C60.0433 600.652 59.6993 600.252 59.2513 600.028C58.8193 599.804 58.3153 599.684 57.7393 599.668C56.7633 599.668 56.0033 600.012 55.4593 600.7C54.9153 601.388 54.6433 602.356 54.6433 603.604H53.6593C53.6593 602.34 53.8433 601.26 54.2113 600.364C54.5793 599.452 55.1073 598.756 55.7953 598.276C56.4993 597.796 57.3393 597.556 58.3153 597.556C59.7553 597.556 60.8833 598.004 61.6993 598.9C62.5313 599.78 62.9473 601.14 62.9473 602.98L60.6673 603.7ZM77.6518 610.132C76.7558 610.132 75.9398 610.028 75.2038 609.82C74.4838 609.612 73.8518 609.332 73.3078 608.98C72.7798 608.612 72.3398 608.204 71.9878 607.756C71.6358 607.308 71.3878 606.836 71.2438 606.34L73.5238 605.596C73.7638 606.252 74.2198 606.82 74.8918 607.3C75.5638 607.78 76.3878 608.028 77.3638 608.044C78.5478 608.044 79.4758 607.812 80.1478 607.348C80.8358 606.868 81.1798 606.236 81.1798 605.452C81.1798 604.732 80.8838 604.148 80.2918 603.7C79.6998 603.236 78.9158 602.884 77.9398 602.644L75.9958 602.14C75.2278 601.932 74.5238 601.636 73.8838 601.252C73.2598 600.868 72.7638 600.38 72.3958 599.788C72.0278 599.196 71.8438 598.484 71.8438 597.652C71.8438 596.116 72.3398 594.916 73.3318 594.052C74.3398 593.188 75.7878 592.756 77.6758 592.756C78.7638 592.756 79.7078 592.932 80.5078 593.284C81.3078 593.62 81.9638 594.068 82.4758 594.628C83.0038 595.188 83.3798 595.804 83.6038 596.476L81.3238 597.244C81.0518 596.524 80.5878 595.948 79.9318 595.516C79.2758 595.068 78.4678 594.844 77.5078 594.844C76.4998 594.844 75.6998 595.084 75.1078 595.564C74.5318 596.044 74.2438 596.7 74.2438 597.532C74.2438 598.236 74.4678 598.78 74.9158 599.164C75.3798 599.532 75.9958 599.812 76.7638 600.004L78.7078 600.484C80.2758 600.868 81.4838 601.508 82.3318 602.404C83.1958 603.284 83.6278 604.252 83.6278 605.308C83.6278 606.22 83.3958 607.044 82.9318 607.78C82.4838 608.5 81.8118 609.076 80.9158 609.508C80.0358 609.924 78.9478 610.132 77.6518 610.132ZM93.7151 609.844L93.5951 607.756V603.58C93.5951 602.7 93.4911 601.972 93.2831 601.396C93.0911 600.804 92.7871 600.356 92.3711 600.052C91.9711 599.748 91.4351 599.596 90.7631 599.596C90.1391 599.596 89.5871 599.724 89.1071 599.98C88.6431 600.236 88.2591 600.636 87.9551 601.18L85.8911 600.412C86.1791 599.868 86.5471 599.38 86.9951 598.948C87.4431 598.516 87.9791 598.18 88.6031 597.94C89.2431 597.684 89.9791 597.556 90.8111 597.556C91.9311 597.556 92.8671 597.772 93.6191 598.204C94.3871 598.636 94.9551 599.284 95.3231 600.148C95.7071 600.996 95.8911 602.052 95.8751 603.316L95.8511 609.844H93.7151ZM90.2111 610.132C88.7871 610.132 87.6751 609.812 86.8751 609.172C86.0911 608.516 85.6991 607.612 85.6991 606.46C85.6991 605.228 86.1071 604.292 86.9231 603.652C87.7551 602.996 88.9071 602.668 90.3791 602.668H93.7151V604.468H91.0031C89.8991 604.468 89.1231 604.644 88.6751 604.996C88.2271 605.332 88.0031 605.804 88.0031 606.412C88.0031 606.972 88.2111 607.412 88.6271 607.732C89.0591 608.036 89.6511 608.188 90.4031 608.188C91.0591 608.188 91.6191 608.036 92.0831 607.732C92.5631 607.428 92.9311 607.028 93.1871 606.532C93.4591 606.02 93.5951 605.452 93.5951 604.828H94.6751C94.6751 606.46 94.2991 607.756 93.5471 608.716C92.7951 609.66 91.6831 610.132 90.2111 610.132ZM98.7461 609.844V593.044H101.026V609.844H98.7461ZM109.488 610.132C108.32 610.132 107.288 609.868 106.392 609.34C105.496 608.796 104.792 608.052 104.28 607.108C103.768 606.164 103.512 605.076 103.512 603.844C103.512 602.612 103.768 601.524 104.28 600.58C104.792 599.636 105.496 598.9 106.392 598.372C107.304 597.828 108.344 597.556 109.512 597.556C110.6 597.556 111.56 597.836 112.392 598.396C113.24 598.94 113.896 599.724 114.36 600.748C114.84 601.756 115.08 602.948 115.08 604.324H112.8C112.816 603.3 112.688 602.436 112.416 601.732C112.16 601.028 111.776 600.5 111.264 600.148C110.768 599.78 110.168 599.596 109.464 599.596C108.712 599.596 108.064 599.772 107.52 600.124C106.976 600.46 106.552 600.948 106.248 601.588C105.96 602.212 105.816 602.98 105.816 603.892C105.816 604.74 105.984 605.476 106.32 606.1C106.656 606.708 107.112 607.188 107.688 607.54C108.264 607.876 108.92 608.044 109.656 608.044C110.44 608.044 111.088 607.86 111.6 607.492C112.128 607.124 112.544 606.652 112.848 606.076L114.888 607.012C114.568 607.636 114.152 608.188 113.64 608.668C113.128 609.132 112.52 609.492 111.816 609.748C111.128 610.004 110.352 610.132 109.488 610.132ZM105 604.324L105.024 602.452H113.808V604.324H105Z" fill="white"/>
<path d="M33.3474 378.844V358.78L33.7634 356.444H37.5394L37.5074 378.844H33.3474ZM28.6114 363.516V359.548C29.1448 359.59 29.7208 359.462 30.3394 359.164C30.9581 358.844 31.5661 358.438 32.1634 357.948C32.7821 357.436 33.3154 356.924 33.7634 356.412L36.5474 359.132C35.7794 359.985 34.9688 360.764 34.1154 361.468C33.2621 362.15 32.3768 362.684 31.4594 363.068C30.5634 363.452 29.6141 363.601 28.6114 363.516ZM46.5274 377.916L42.2394 375.612C42.2394 374.993 42.4314 374.31 42.8154 373.564C43.1994 372.817 43.7328 372.07 44.4154 371.324C45.0981 370.577 45.8981 369.884 46.8154 369.244L50.2074 366.812C50.6768 366.492 51.1141 366.129 51.5194 365.724C51.9461 365.318 52.2874 364.881 52.5434 364.412C52.8208 363.921 52.9594 363.452 52.9594 363.004C52.9594 362.449 52.8208 361.948 52.5434 361.5C52.2874 361.052 51.9034 360.7 51.3914 360.444C50.8794 360.188 50.2501 360.06 49.5034 360.06C48.8634 360.06 48.2874 360.188 47.7754 360.444C47.2848 360.7 46.8794 361.041 46.5594 361.468C46.2394 361.894 46.0154 362.353 45.8874 362.844L41.3754 362.076C41.5888 361.009 42.0474 360.017 42.7514 359.1C43.4554 358.182 44.3728 357.446 45.5034 356.892C46.6554 356.316 47.9568 356.028 49.4074 356.028C51.0714 356.028 52.5008 356.326 53.6954 356.924C54.8901 357.521 55.8074 358.342 56.4474 359.388C57.1088 360.412 57.4394 361.606 57.4394 362.972C57.4394 364.358 57.0554 365.596 56.2874 366.684C55.5408 367.75 54.5061 368.753 53.1834 369.692L50.1434 371.9C49.5248 372.305 48.9381 372.796 48.3834 373.372C47.8288 373.926 47.3808 374.577 47.0394 375.324C46.6981 376.049 46.5274 376.913 46.5274 377.916ZM42.2394 378.844V375.612L45.5034 375.004H57.7274V378.844H42.2394ZM62.0187 378.844L77.9227 356.444H82.1467L66.1467 378.844H62.0187ZM78.6267 379.324C77.624 379.324 76.728 379.089 75.9387 378.62C75.1493 378.15 74.5307 377.5 74.0827 376.668C73.656 375.814 73.4427 374.854 73.4427 373.788C73.4427 372.7 73.656 371.74 74.0827 370.908C74.5307 370.076 75.1493 369.425 75.9387 368.956C76.728 368.486 77.624 368.252 78.6267 368.252C79.6507 368.252 80.5467 368.497 81.3147 368.988C82.104 369.457 82.7227 370.108 83.1707 370.94C83.6187 371.75 83.8427 372.7 83.8427 373.788C83.8427 374.854 83.6187 375.814 83.1707 376.668C82.7227 377.5 82.104 378.15 81.3147 378.62C80.5467 379.089 79.6507 379.324 78.6267 379.324ZM78.6267 376.508C79.288 376.508 79.8213 376.252 80.2267 375.74C80.632 375.206 80.8347 374.556 80.8347 373.788C80.8347 373.02 80.632 372.38 80.2267 371.868C79.8213 371.334 79.288 371.068 78.6267 371.068C77.9867 371.068 77.4533 371.334 77.0267 371.868C76.6213 372.38 76.4187 373.02 76.4187 373.788C76.4187 374.556 76.6213 375.206 77.0267 375.74C77.4533 376.252 77.9867 376.508 78.6267 376.508ZM65.6667 367.004C64.6427 367.004 63.736 366.769 62.9467 366.3C62.1787 365.83 61.5707 365.18 61.1227 364.348C60.6747 363.494 60.4507 362.534 60.4507 361.468C60.4507 360.38 60.664 359.42 61.0907 358.588C61.5387 357.756 62.1573 357.105 62.9467 356.636C63.736 356.166 64.6427 355.932 65.6667 355.932C66.6907 355.932 67.5867 356.177 68.3547 356.668C69.144 357.137 69.752 357.788 70.1787 358.62C70.6267 359.43 70.8507 360.38 70.8507 361.468C70.8507 362.534 70.6267 363.494 70.1787 364.348C69.752 365.18 69.144 365.83 68.3547 366.3C67.5653 366.769 66.6693 367.004 65.6667 367.004ZM65.6347 364.188C66.296 364.188 66.8293 363.932 67.2347 363.42C67.6613 362.886 67.8747 362.236 67.8747 361.468C67.8747 360.7 67.6613 360.06 67.2347 359.548C66.8293 359.036 66.296 358.78 65.6347 358.78C64.9947 358.78 64.472 359.036 64.0667 359.548C63.6613 360.06 63.4587 360.7 63.4587 361.468C63.4587 362.236 63.6613 362.886 64.0667 363.42C64.472 363.932 64.9947 364.188 65.6347 364.188Z" fill="white"/>
<path d="M29.2434 409.844V393.044H31.5954V409.844H29.2434ZM35.3242 409.844V397.844H37.4602L37.6042 400.052V409.844H35.3242ZM43.6282 409.844V403.7L45.9082 402.98V409.844H43.6282ZM43.6282 403.7C43.6282 402.612 43.5002 401.788 43.2442 401.228C43.0042 400.652 42.6602 400.252 42.2122 400.028C41.7802 399.804 41.2762 399.684 40.7002 399.668C39.7242 399.668 38.9642 400.012 38.4202 400.7C37.8762 401.388 37.6042 402.356 37.6042 403.604H36.6202C36.6202 402.34 36.8042 401.26 37.1722 400.364C37.5402 399.452 38.0682 398.756 38.7562 398.276C39.4602 397.796 40.3002 397.556 41.2762 397.556C42.7162 397.556 43.8442 398.004 44.6602 398.9C45.4922 399.78 45.9082 401.14 45.9082 402.98L43.6282 403.7ZM52.3344 409.844L57.1344 397.844H59.5104L54.4944 409.844H52.3344ZM52.1904 409.844L47.1984 397.844H49.5264L54.3264 409.844H52.1904ZM66.2923 410.132C65.1243 410.132 64.0923 409.868 63.1963 409.34C62.3003 408.796 61.5963 408.052 61.0843 407.108C60.5723 406.164 60.3163 405.076 60.3163 403.844C60.3163 402.612 60.5723 401.524 61.0843 400.58C61.5963 399.636 62.3003 398.9 63.1963 398.372C64.1083 397.828 65.1483 397.556 66.3163 397.556C67.4043 397.556 68.3643 397.836 69.1963 398.396C70.0443 398.94 70.7003 399.724 71.1643 400.748C71.6443 401.756 71.8843 402.948 71.8843 404.324H69.6043C69.6203 403.3 69.4923 402.436 69.2203 401.732C68.9643 401.028 68.5803 400.5 68.0683 400.148C67.5723 399.78 66.9723 399.596 66.2683 399.596C65.5163 399.596 64.8683 399.772 64.3243 400.124C63.7803 400.46 63.3563 400.948 63.0523 401.588C62.7643 402.212 62.6203 402.98 62.6203 403.892C62.6203 404.74 62.7883 405.476 63.1243 406.1C63.4603 406.708 63.9163 407.188 64.4923 407.54C65.0683 407.876 65.7243 408.044 66.4603 408.044C67.2443 408.044 67.8923 407.86 68.4043 407.492C68.9323 407.124 69.3483 406.652 69.6523 406.076L71.6923 407.012C71.3723 407.636 70.9563 408.188 70.4443 408.668C69.9323 409.132 69.3243 409.492 68.6203 409.748C67.9323 410.004 67.1563 410.132 66.2923 410.132ZM61.8043 404.324L61.8283 402.452H70.6123V404.324H61.8043ZM78.4327 410.132C77.5847 410.132 76.8247 410.004 76.1527 409.748C75.4967 409.492 74.9367 409.148 74.4727 408.716C74.0247 408.284 73.6887 407.796 73.4647 407.252L75.4327 406.388C75.6887 406.884 76.0727 407.292 76.5847 407.612C77.0967 407.932 77.6647 408.092 78.2887 408.092C78.9767 408.092 79.5447 407.964 79.9927 407.708C80.4407 407.452 80.6647 407.092 80.6647 406.628C80.6647 406.18 80.4967 405.828 80.1607 405.572C79.8247 405.316 79.3367 405.108 78.6967 404.948L77.5687 404.66C76.4487 404.356 75.5767 403.9 74.9527 403.292C74.3447 402.684 74.0407 401.996 74.0407 401.228C74.0407 400.06 74.4167 399.156 75.1687 398.516C75.9207 397.876 77.0327 397.556 78.5047 397.556C79.2247 397.556 79.8807 397.66 80.4727 397.868C81.0807 398.076 81.5927 398.372 82.0087 398.756C82.4407 399.14 82.7447 399.596 82.9207 400.124L81.0007 400.988C80.8087 400.508 80.4807 400.156 80.0167 399.932C79.5527 399.692 79.0087 399.572 78.3847 399.572C77.7447 399.572 77.2407 399.716 76.8727 400.004C76.5047 400.276 76.3207 400.66 76.3207 401.156C76.3207 401.428 76.4727 401.692 76.7767 401.948C77.0967 402.188 77.5607 402.388 78.1687 402.548L79.4647 402.86C80.2487 403.052 80.8967 403.348 81.4087 403.748C81.9207 404.132 82.3047 404.572 82.5607 405.068C82.8167 405.548 82.9447 406.052 82.9447 406.58C82.9447 407.3 82.7447 407.932 82.3447 408.476C81.9607 409.004 81.4247 409.412 80.7367 409.7C80.0647 409.988 79.2967 410.132 78.4327 410.132ZM89.9484 410.132C88.7484 410.132 87.8204 409.828 87.1644 409.22C86.5084 408.596 86.1804 407.708 86.1804 406.556V394.1H88.4604V406.22C88.4604 406.812 88.6044 407.268 88.8924 407.588C89.1964 407.892 89.6284 408.044 90.1884 408.044C90.3484 408.044 90.5244 408.012 90.7164 407.948C90.9084 407.884 91.1404 407.756 91.4124 407.564L92.2764 409.34C91.8604 409.612 91.4604 409.812 91.0764 409.94C90.7084 410.068 90.3324 410.132 89.9484 410.132ZM84.1404 399.812V397.844H91.8684V399.812H84.1404ZM99.8576 410.132C98.6576 410.132 97.6016 409.868 96.6896 409.34C95.7776 408.796 95.0576 408.052 94.5296 407.108C94.0176 406.164 93.7616 405.076 93.7616 403.844C93.7616 402.612 94.0176 401.524 94.5296 400.58C95.0416 399.636 95.7536 398.9 96.6656 398.372C97.5776 397.828 98.6256 397.556 99.8096 397.556C100.994 397.556 102.042 397.828 102.954 398.372C103.866 398.9 104.578 399.636 105.09 400.58C105.602 401.524 105.858 402.612 105.858 403.844C105.858 405.076 105.602 406.164 105.09 407.108C104.578 408.052 103.866 408.796 102.954 409.34C102.058 409.868 101.026 410.132 99.8576 410.132ZM99.8576 408.044C100.578 408.044 101.218 407.868 101.778 407.516C102.338 407.148 102.77 406.652 103.074 406.028C103.394 405.404 103.554 404.676 103.554 403.844C103.554 403.012 103.394 402.284 103.074 401.66C102.77 401.036 102.33 400.548 101.754 400.196C101.178 399.828 100.53 399.644 99.8096 399.644C99.0736 399.644 98.4256 399.828 97.8656 400.196C97.3056 400.548 96.8656 401.036 96.5456 401.66C96.2256 402.284 96.0656 403.012 96.0656 403.844C96.0656 404.676 96.2256 405.404 96.5456 406.028C96.8656 406.652 97.3136 407.148 97.8896 407.516C98.4656 407.868 99.1216 408.044 99.8576 408.044ZM109.747 403.388C109.747 402.092 109.995 401.036 110.491 400.22C110.987 399.404 111.627 398.796 112.411 398.396C113.195 397.996 114.019 397.796 114.883 397.796V399.956C114.163 399.956 113.475 400.068 112.819 400.292C112.179 400.5 111.651 400.852 111.235 401.348C110.835 401.828 110.635 402.484 110.635 403.316L109.747 403.388ZM108.355 409.844V397.844H110.635V409.844H108.355ZM121.019 410.132C120.171 410.132 119.411 410.004 118.739 409.748C118.083 409.492 117.523 409.148 117.059 408.716C116.611 408.284 116.275 407.796 116.051 407.252L118.019 406.388C118.275 406.884 118.659 407.292 119.171 407.612C119.683 407.932 120.251 408.092 120.875 408.092C121.563 408.092 122.131 407.964 122.579 407.708C123.027 407.452 123.251 407.092 123.251 406.628C123.251 406.18 123.083 405.828 122.747 405.572C122.411 405.316 121.923 405.108 121.283 404.948L120.155 404.66C119.035 404.356 118.163 403.9 117.539 403.292C116.931 402.684 116.627 401.996 116.627 401.228C116.627 400.06 117.003 399.156 117.755 398.516C118.507 397.876 119.619 397.556 121.091 397.556C121.811 397.556 122.467 397.66 123.059 397.868C123.667 398.076 124.179 398.372 124.595 398.756C125.027 399.14 125.331 399.596 125.507 400.124L123.587 400.988C123.395 400.508 123.067 400.156 122.603 399.932C122.139 399.692 121.595 399.572 120.971 399.572C120.331 399.572 119.827 399.716 119.459 400.004C119.091 400.276 118.907 400.66 118.907 401.156C118.907 401.428 119.059 401.692 119.363 401.948C119.683 402.188 120.147 402.388 120.755 402.548L122.051 402.86C122.835 403.052 123.483 403.348 123.995 403.748C124.507 404.132 124.891 404.572 125.147 405.068C125.403 405.548 125.531 406.052 125.531 406.58C125.531 407.3 125.331 407.932 124.931 408.476C124.547 409.004 124.011 409.412 123.323 409.7C122.651 409.988 121.883 410.132 121.019 410.132Z" fill="white"/>
<path d="M196.027 825.916L191.739 823.612C191.739 822.993 191.931 822.31 192.315 821.564C192.699 820.817 193.233 820.07 193.915 819.324C194.598 818.577 195.398 817.884 196.315 817.244L199.707 814.812C200.177 814.492 200.614 814.129 201.019 813.724C201.446 813.318 201.787 812.881 202.043 812.412C202.321 811.921 202.459 811.452 202.459 811.004C202.459 810.449 202.321 809.948 202.043 809.5C201.787 809.052 201.403 808.7 200.891 808.444C200.379 808.188 199.75 808.06 199.003 808.06C198.363 808.06 197.787 808.188 197.275 808.444C196.785 808.7 196.379 809.041 196.059 809.468C195.739 809.894 195.515 810.353 195.387 810.844L190.875 810.076C191.089 809.009 191.547 808.017 192.251 807.1C192.955 806.182 193.873 805.446 195.003 804.892C196.155 804.316 197.457 804.028 198.907 804.028C200.571 804.028 202.001 804.326 203.195 804.924C204.39 805.521 205.307 806.342 205.947 807.388C206.609 808.412 206.939 809.606 206.939 810.972C206.939 812.358 206.555 813.596 205.787 814.684C205.041 815.75 204.006 816.753 202.683 817.692L199.643 819.9C199.025 820.305 198.438 820.796 197.883 821.372C197.329 821.926 196.881 822.577 196.539 823.324C196.198 824.049 196.027 824.913 196.027 825.916ZM191.739 826.844V823.612L195.003 823.004H207.227V826.844H191.739ZM211.519 826.844L227.423 804.444H231.647L215.647 826.844H211.519ZM228.127 827.324C227.124 827.324 226.228 827.089 225.439 826.62C224.649 826.15 224.031 825.5 223.583 824.668C223.156 823.814 222.943 822.854 222.943 821.788C222.943 820.7 223.156 819.74 223.583 818.908C224.031 818.076 224.649 817.425 225.439 816.956C226.228 816.486 227.124 816.252 228.127 816.252C229.151 816.252 230.047 816.497 230.815 816.988C231.604 817.457 232.223 818.108 232.671 818.94C233.119 819.75 233.343 820.7 233.343 821.788C233.343 822.854 233.119 823.814 232.671 824.668C232.223 825.5 231.604 826.15 230.815 826.62C230.047 827.089 229.151 827.324 228.127 827.324ZM228.127 824.508C228.788 824.508 229.321 824.252 229.727 823.74C230.132 823.206 230.335 822.556 230.335 821.788C230.335 821.02 230.132 820.38 229.727 819.868C229.321 819.334 228.788 819.068 228.127 819.068C227.487 819.068 226.953 819.334 226.527 819.868C226.121 820.38 225.919 821.02 225.919 821.788C225.919 822.556 226.121 823.206 226.527 823.74C226.953 824.252 227.487 824.508 228.127 824.508ZM215.167 815.004C214.143 815.004 213.236 814.769 212.447 814.3C211.679 813.83 211.071 813.18 210.623 812.348C210.175 811.494 209.951 810.534 209.951 809.468C209.951 808.38 210.164 807.42 210.591 806.588C211.039 805.756 211.657 805.105 212.447 804.636C213.236 804.166 214.143 803.932 215.167 803.932C216.191 803.932 217.087 804.177 217.855 804.668C218.644 805.137 219.252 805.788 219.679 806.62C220.127 807.43 220.351 808.38 220.351 809.468C220.351 810.534 220.127 811.494 219.679 812.348C219.252 813.18 218.644 813.83 217.855 814.3C217.065 814.769 216.169 815.004 215.167 815.004ZM215.135 812.188C215.796 812.188 216.329 811.932 216.735 811.42C217.161 810.886 217.375 810.236 217.375 809.468C217.375 808.7 217.161 808.06 216.735 807.548C216.329 807.036 215.796 806.78 215.135 806.78C214.495 806.78 213.972 807.036 213.567 807.548C213.161 808.06 212.959 808.7 212.959 809.468C212.959 810.236 213.161 810.886 213.567 811.42C213.972 811.932 214.495 812.188 215.135 812.188Z" fill="white"/>
<path d="M203.859 857.844L197.211 841.044H199.611L206.379 857.844H203.859ZM190.323 857.844L197.091 841.044H199.491L192.843 857.844H190.323ZM193.515 853.356V851.244H203.187V853.356H193.515ZM216.764 857.844L216.668 855.612V841.044H218.924V857.844H216.764ZM212.732 858.132C211.644 858.132 210.692 857.868 209.876 857.34C209.076 856.812 208.444 856.076 207.98 855.132C207.532 854.188 207.308 853.092 207.308 851.844C207.308 850.58 207.532 849.484 207.98 848.556C208.444 847.612 209.076 846.876 209.876 846.348C210.692 845.82 211.644 845.556 212.732 845.556C213.74 845.556 214.612 845.82 215.348 846.348C216.1 846.876 216.676 847.612 217.076 848.556C217.476 849.484 217.676 850.58 217.676 851.844C217.676 853.092 217.476 854.188 217.076 855.132C216.676 856.076 216.1 856.812 215.348 857.34C214.612 857.868 213.74 858.132 212.732 858.132ZM213.26 856.068C213.932 856.068 214.524 855.892 215.036 855.54C215.548 855.172 215.948 854.676 216.236 854.052C216.524 853.412 216.668 852.676 216.668 851.844C216.668 851.012 216.524 850.284 216.236 849.66C215.948 849.02 215.548 848.524 215.036 848.172C214.524 847.804 213.924 847.62 213.236 847.62C212.532 847.62 211.908 847.804 211.364 848.172C210.82 848.524 210.396 849.02 210.092 849.66C209.788 850.284 209.636 851.012 209.636 851.844C209.636 852.676 209.788 853.412 210.092 854.052C210.412 854.676 210.844 855.172 211.388 855.54C211.932 855.892 212.556 856.068 213.26 856.068ZM225.858 857.844L230.658 845.844H233.034L228.018 857.844H225.858ZM225.714 857.844L220.722 845.844H223.05L227.85 857.844H225.714ZM234.96 857.844L235.008 845.844H237.264L237.24 857.844H234.96ZM236.112 843.3C235.744 843.3 235.424 843.164 235.152 842.892C234.88 842.604 234.744 842.276 234.744 841.908C234.744 841.524 234.88 841.204 235.152 840.948C235.424 840.676 235.744 840.54 236.112 840.54C236.496 840.54 236.816 840.676 237.072 840.948C237.344 841.204 237.48 841.524 237.48 841.908C237.48 842.276 237.344 842.604 237.072 842.892C236.816 843.164 236.496 843.3 236.112 843.3ZM244.878 858.132C244.03 858.132 243.27 858.004 242.598 857.748C241.942 857.492 241.382 857.148 240.918 856.716C240.47 856.284 240.134 855.796 239.91 855.252L241.878 854.388C242.134 854.884 242.518 855.292 243.03 855.612C243.542 855.932 244.11 856.092 244.734 856.092C245.422 856.092 245.99 855.964 246.438 855.708C246.886 855.452 247.11 855.092 247.11 854.628C247.11 854.18 246.942 853.828 246.606 853.572C246.27 853.316 245.782 853.108 245.142 852.948L244.014 852.66C242.894 852.356 242.022 851.9 241.398 851.292C240.79 850.684 240.486 849.996 240.486 849.228C240.486 848.06 240.862 847.156 241.614 846.516C242.366 845.876 243.478 845.556 244.95 845.556C245.67 845.556 246.326 845.66 246.918 845.868C247.526 846.076 248.038 846.372 248.454 846.756C248.886 847.14 249.19 847.596 249.366 848.124L247.446 848.988C247.254 848.508 246.926 848.156 246.462 847.932C245.998 847.692 245.454 847.572 244.83 847.572C244.19 847.572 243.686 847.716 243.318 848.004C242.95 848.276 242.766 848.66 242.766 849.156C242.766 849.428 242.918 849.692 243.222 849.948C243.542 850.188 244.006 850.388 244.614 850.548L245.91 850.86C246.694 851.052 247.342 851.348 247.854 851.748C248.366 852.132 248.75 852.572 249.006 853.068C249.262 853.548 249.39 854.052 249.39 854.58C249.39 855.3 249.19 855.932 248.79 856.476C248.406 857.004 247.87 857.412 247.182 857.7C246.51 857.988 245.742 858.132 244.878 858.132ZM257.186 858.132C255.986 858.132 254.93 857.868 254.018 857.34C253.106 856.796 252.386 856.052 251.858 855.108C251.346 854.164 251.09 853.076 251.09 851.844C251.09 850.612 251.346 849.524 251.858 848.58C252.37 847.636 253.082 846.9 253.994 846.372C254.906 845.828 255.954 845.556 257.138 845.556C258.322 845.556 259.37 845.828 260.282 846.372C261.194 846.9 261.906 847.636 262.418 848.58C262.93 849.524 263.186 850.612 263.186 851.844C263.186 853.076 262.93 854.164 262.418 855.108C261.906 856.052 261.194 856.796 260.282 857.34C259.386 857.868 258.354 858.132 257.186 858.132ZM257.186 856.044C257.906 856.044 258.546 855.868 259.106 855.516C259.666 855.148 260.098 854.652 260.402 854.028C260.722 853.404 260.882 852.676 260.882 851.844C260.882 851.012 260.722 850.284 260.402 849.66C260.098 849.036 259.658 848.548 259.082 848.196C258.506 847.828 257.858 847.644 257.138 847.644C256.402 847.644 255.754 847.828 255.194 848.196C254.634 848.548 254.194 849.036 253.874 849.66C253.554 850.284 253.394 851.012 253.394 851.844C253.394 852.676 253.554 853.404 253.874 854.028C254.194 854.652 254.642 855.148 255.218 855.516C255.794 855.868 256.45 856.044 257.186 856.044ZM267.076 851.388C267.076 850.092 267.324 849.036 267.82 848.22C268.316 847.404 268.956 846.796 269.74 846.396C270.524 845.996 271.348 845.796 272.212 845.796V847.956C271.492 847.956 270.804 848.068 270.148 848.292C269.508 848.5 268.98 848.852 268.564 849.348C268.164 849.828 267.964 850.484 267.964 851.316L267.076 851.388ZM265.684 857.844V845.844H267.964V857.844H265.684ZM278.347 858.132C277.499 858.132 276.739 858.004 276.067 857.748C275.411 857.492 274.851 857.148 274.387 856.716C273.939 856.284 273.603 855.796 273.379 855.252L275.347 854.388C275.603 854.884 275.987 855.292 276.499 855.612C277.011 855.932 277.579 856.092 278.203 856.092C278.891 856.092 279.459 855.964 279.907 855.708C280.355 855.452 280.579 855.092 280.579 854.628C280.579 854.18 280.411 853.828 280.075 853.572C279.739 853.316 279.251 853.108 278.611 852.948L277.483 852.66C276.363 852.356 275.491 851.9 274.867 851.292C274.259 850.684 273.955 849.996 273.955 849.228C273.955 848.06 274.331 847.156 275.083 846.516C275.835 845.876 276.947 845.556 278.419 845.556C279.139 845.556 279.795 845.66 280.387 845.868C280.995 846.076 281.507 846.372 281.923 846.756C282.355 847.14 282.659 847.596 282.835 848.124L280.915 848.988C280.723 848.508 280.395 848.156 279.931 847.932C279.467 847.692 278.923 847.572 278.299 847.572C277.659 847.572 277.155 847.716 276.787 848.004C276.419 848.276 276.235 848.66 276.235 849.156C276.235 849.428 276.387 849.692 276.691 849.948C277.011 850.188 277.475 850.388 278.083 850.548L279.379 850.86C280.163 851.052 280.811 851.348 281.323 851.748C281.835 852.132 282.219 852.572 282.475 853.068C282.731 853.548 282.859 854.052 282.859 854.58C282.859 855.3 282.659 855.932 282.259 856.476C281.875 857.004 281.339 857.412 280.651 857.7C279.979 857.988 279.211 858.132 278.347 858.132Z" fill="white"/>
<path d="M204.347 121.844V101.78L204.763 99.4437H208.539L208.507 121.844H204.347ZM199.611 106.516V102.548C200.145 102.59 200.721 102.462 201.339 102.164C201.958 101.844 202.566 101.438 203.163 100.948C203.782 100.436 204.315 99.9237 204.763 99.4117L207.547 102.132C206.779 102.985 205.969 103.764 205.115 104.468C204.262 105.15 203.377 105.684 202.459 106.068C201.563 106.452 200.614 106.601 199.611 106.516ZM220.983 122.228C219.959 122.228 218.903 122.057 217.815 121.716C216.749 121.374 215.778 120.862 214.903 120.18C214.05 119.497 213.421 118.654 213.015 117.652L217.015 116.468C217.485 117.15 218.039 117.652 218.679 117.972C219.341 118.292 220.023 118.452 220.727 118.452C221.837 118.452 222.733 118.121 223.415 117.46C224.119 116.777 224.471 115.87 224.471 114.74C224.471 113.694 224.13 112.82 223.447 112.116C222.786 111.412 221.901 111.06 220.791 111.06C220.13 111.06 219.522 111.209 218.967 111.508C218.413 111.806 217.986 112.158 217.687 112.564L213.751 111.7L215.095 99.4437H227.767V103.412H215.735L215.095 99.5717H219.447L217.687 112.116L215.351 111.7C215.543 111.316 215.842 110.9 216.247 110.452C216.653 109.982 217.154 109.534 217.751 109.108C218.37 108.681 219.063 108.34 219.831 108.084C220.599 107.828 221.453 107.71 222.391 107.732C223.607 107.732 224.717 108.03 225.719 108.628C226.722 109.204 227.511 110.004 228.087 111.028C228.685 112.03 228.983 113.204 228.983 114.548C228.983 116.062 228.642 117.396 227.959 118.548C227.277 119.7 226.338 120.606 225.143 121.268C223.949 121.908 222.562 122.228 220.983 122.228ZM233.081 121.844L248.985 99.4437H253.209L237.209 121.844H233.081ZM249.689 122.324C248.687 122.324 247.791 122.089 247.001 121.62C246.212 121.15 245.593 120.5 245.145 119.668C244.719 118.814 244.505 117.854 244.505 116.788C244.505 115.7 244.719 114.74 245.145 113.908C245.593 113.076 246.212 112.425 247.001 111.956C247.791 111.486 248.687 111.252 249.689 111.252C250.713 111.252 251.609 111.497 252.377 111.988C253.167 112.457 253.785 113.108 254.233 113.94C254.681 114.75 254.905 115.7 254.905 116.788C254.905 117.854 254.681 118.814 254.233 119.668C253.785 120.5 253.167 121.15 252.377 121.62C251.609 122.089 250.713 122.324 249.689 122.324ZM249.689 119.508C250.351 119.508 250.884 119.252 251.289 118.74C251.695 118.206 251.897 117.556 251.897 116.788C251.897 116.02 251.695 115.38 251.289 114.868C250.884 114.334 250.351 114.068 249.689 114.068C249.049 114.068 248.516 114.334 248.089 114.868C247.684 115.38 247.481 116.02 247.481 116.788C247.481 117.556 247.684 118.206 248.089 118.74C248.516 119.252 249.049 119.508 249.689 119.508ZM236.729 110.004C235.705 110.004 234.799 109.769 234.009 109.3C233.241 108.83 232.633 108.18 232.185 107.348C231.737 106.494 231.513 105.534 231.513 104.468C231.513 103.38 231.727 102.42 232.153 101.588C232.601 100.756 233.22 100.105 234.009 99.6357C234.799 99.1664 235.705 98.9317 236.729 98.9317C237.753 98.9317 238.649 99.1771 239.417 99.6677C240.207 100.137 240.815 100.788 241.241 101.62C241.689 102.43 241.913 103.38 241.913 104.468C241.913 105.534 241.689 106.494 241.241 107.348C240.815 108.18 240.207 108.83 239.417 109.3C238.628 109.769 237.732 110.004 236.729 110.004ZM236.697 107.188C237.359 107.188 237.892 106.932 238.297 106.42C238.724 105.886 238.937 105.236 238.937 104.468C238.937 103.7 238.724 103.06 238.297 102.548C237.892 102.036 237.359 101.78 236.697 101.78C236.057 101.78 235.535 102.036 235.129 102.548C234.724 103.06 234.521 103.7 234.521 104.468C234.521 105.236 234.724 105.886 235.129 106.42C235.535 106.932 236.057 107.188 236.697 107.188Z" fill="white"/>
<path d="M203.651 152.844V137.436H206.027V152.844H203.651ZM198.395 138.204V136.044H211.283V138.204H198.395ZM216.949 153.132C215.781 153.132 214.749 152.868 213.853 152.34C212.957 151.796 212.253 151.052 211.741 150.108C211.229 149.164 210.973 148.076 210.973 146.844C210.973 145.612 211.229 144.524 211.741 143.58C212.253 142.636 212.957 141.9 213.853 141.372C214.765 140.828 215.805 140.556 216.973 140.556C218.061 140.556 219.021 140.836 219.853 141.396C220.701 141.94 221.357 142.724 221.821 143.748C222.301 144.756 222.541 145.948 222.541 147.324H220.261C220.277 146.3 220.149 145.436 219.877 144.732C219.621 144.028 219.237 143.5 218.725 143.148C218.229 142.78 217.629 142.596 216.925 142.596C216.173 142.596 215.525 142.772 214.981 143.124C214.437 143.46 214.013 143.948 213.709 144.588C213.421 145.212 213.277 145.98 213.277 146.892C213.277 147.74 213.445 148.476 213.781 149.1C214.117 149.708 214.573 150.188 215.149 150.54C215.725 150.876 216.381 151.044 217.117 151.044C217.901 151.044 218.549 150.86 219.061 150.492C219.589 150.124 220.005 149.652 220.309 149.076L222.349 150.012C222.029 150.636 221.613 151.188 221.101 151.668C220.589 152.132 219.981 152.492 219.277 152.748C218.589 153.004 217.813 153.132 216.949 153.132ZM212.461 147.324L212.485 145.452H221.269V147.324H212.461ZM232.137 152.844L232.017 150.756V146.58C232.017 145.7 231.913 144.972 231.705 144.396C231.513 143.804 231.209 143.356 230.793 143.052C230.393 142.748 229.857 142.596 229.185 142.596C228.561 142.596 228.009 142.724 227.529 142.98C227.065 143.236 226.681 143.636 226.377 144.18L224.313 143.412C224.601 142.868 224.969 142.38 225.417 141.948C225.865 141.516 226.401 141.18 227.025 140.94C227.665 140.684 228.401 140.556 229.233 140.556C230.353 140.556 231.289 140.772 232.041 141.204C232.809 141.636 233.377 142.284 233.745 143.148C234.129 143.996 234.313 145.052 234.297 146.316L234.273 152.844H232.137ZM228.633 153.132C227.209 153.132 226.097 152.812 225.297 152.172C224.513 151.516 224.121 150.612 224.121 149.46C224.121 148.228 224.529 147.292 225.345 146.652C226.177 145.996 227.329 145.668 228.801 145.668H232.137V147.468H229.425C228.321 147.468 227.545 147.644 227.097 147.996C226.649 148.332 226.425 148.804 226.425 149.412C226.425 149.972 226.633 150.412 227.049 150.732C227.481 151.036 228.073 151.188 228.825 151.188C229.481 151.188 230.041 151.036 230.505 150.732C230.985 150.428 231.353 150.028 231.609 149.532C231.881 149.02 232.017 148.452 232.017 147.828H233.097C233.097 149.46 232.721 150.756 231.969 151.716C231.217 152.66 230.105 153.132 228.633 153.132ZM237.168 152.844V140.844H239.304L239.448 143.052V152.844H237.168ZM245.472 152.844V146.7L247.752 145.98V152.844H245.472ZM253.776 152.844V146.7L256.032 145.98V152.844H253.776ZM245.472 146.7C245.472 145.612 245.344 144.788 245.088 144.228C244.848 143.652 244.504 143.252 244.056 143.028C243.624 142.804 243.12 142.684 242.544 142.668C241.568 142.668 240.808 143.012 240.264 143.7C239.72 144.388 239.448 145.356 239.448 146.604H238.464C238.464 145.34 238.648 144.26 239.016 143.364C239.384 142.452 239.912 141.756 240.6 141.276C241.304 140.796 242.144 140.556 243.12 140.556C244.56 140.556 245.688 141.004 246.504 141.9C247.336 142.78 247.752 144.14 247.752 145.98L245.472 146.7ZM253.776 146.7C253.776 145.612 253.648 144.788 253.392 144.228C253.136 143.652 252.792 143.252 252.36 143.028C251.928 142.804 251.424 142.684 250.848 142.668C249.872 142.668 249.112 143.012 248.568 143.7C248.024 144.388 247.752 145.356 247.752 146.604H246.768C246.768 145.34 246.952 144.26 247.32 143.364C247.688 142.452 248.216 141.756 248.904 141.276C249.608 140.796 250.448 140.556 251.424 140.556C252.864 140.556 253.992 141.004 254.808 141.9C255.64 142.78 256.048 144.14 256.032 145.98L253.776 146.7Z" fill="white"/>
<line x1="913.4" y1="450.137" x2="971.4" y2="392.137" stroke="white" stroke-width="2"/>
<line x1="970.107" y1="392.844" x2="1005.11" y2="392.844" stroke="white" stroke-width="2"/>
<circle cx="1004.61" cy="392.344" r="4.5" fill="white"/>
<line x1="417.342" y1="197.996" x2="346.342" y2="126.996" stroke="white" stroke-width="2"/>
<line x1="346.621" y1="126.626" x2="301.986" y2="125.329" stroke="white" stroke-width="2"/>
<circle cx="298.946" cy="125.682" r="4.5" transform="rotate(-68.4476 298.946 125.682)" fill="white"/>
<line x1="475.059" y1="775.314" x2="423.632" y2="823.845" stroke="white" stroke-width="2"/>
<line x1="424.058" y1="823.15" x2="422.765" y2="867.786" stroke="white" stroke-width="2"/>
<circle cx="422.77" cy="870.062" r="4.5" transform="rotate(175.895 422.77 870.062)" fill="white"/>
<line x1="375.815" y1="721.814" x2="305.815" y2="791.814" stroke="white" stroke-width="2"/>
<circle cx="307.101" cy="790.838" r="4.5" transform="rotate(-154.624 307.101 790.838)" fill="white"/>
<circle cx="154.039" cy="583.773" r="4.5" transform="rotate(84.2355 154.039 583.773)" fill="white"/>
<line x1="279.107" y1="583.844" x2="156.107" y2="583.844" stroke="white" stroke-width="2"/>
<circle cx="148.037" cy="377.773" r="4.5" transform="rotate(84.2355 148.037 377.773)" fill="white"/>
<line x1="273.105" y1="377.844" x2="150.105" y2="377.844" stroke="white" stroke-width="2"/>
<path d="M261.379 510.412C256.996 510.933 253.008 507.806 252.588 503.412C245.163 425.707 265.81 347.895 310.822 283.951C313.355 280.352 318.35 279.601 321.901 282.203L398.377 338.236C401.954 340.857 402.703 345.881 400.196 349.539C371.919 390.81 358.74 440.499 362.87 490.272C363.235 494.679 360.117 498.666 355.725 499.189L261.379 510.412Z" fill="#AF4D96"/>
<path d="M590.448 782.758C590.548 787.175 594.212 790.684 598.625 790.48C683.711 786.554 764.156 751.035 823.181 691.112C884.053 629.316 917.157 546.628 915.213 461.239C913.269 375.849 876.435 294.754 812.814 235.792C751.123 178.618 669.145 146.797 583.969 146.747C579.55 146.744 576.05 150.416 576.151 154.833L578.25 247.053C578.351 251.47 582.016 254.954 586.434 255.009C642.015 255.7 695.365 276.753 735.671 314.108C777.908 353.252 802.362 407.09 803.652 463.779C804.943 520.467 782.965 575.363 742.554 616.389C703.989 655.539 651.653 678.999 596.161 682.218C591.75 682.474 588.247 686.121 588.348 690.539L590.448 782.758Z" fill="#482E87"/>
<path d="M323.091 283.192C319.551 280.563 318.799 275.559 321.502 272.075C351.771 233.071 390.366 201.322 434.466 179.202C478.541 157.095 526.928 145.203 576.053 144.357C580.481 144.281 584.042 147.916 583.994 152.345L582.968 247.29C582.92 251.697 579.316 255.22 574.91 255.349C543.206 256.281 512.025 264.141 483.554 278.421C455.089 292.699 430.079 313.019 410.245 337.933C407.487 341.397 402.476 342.156 398.922 339.516L323.091 283.192Z" fill="#2063F2"/>
<path d="M261.818 511.365C257.45 512.031 254.439 516.114 255.21 520.465C267.662 590.768 302.415 655.174 354.255 704.026C357.484 707.069 362.575 706.772 365.519 703.452L428.337 632.605C431.256 629.313 430.957 624.292 427.791 621.236C395.063 589.651 372.907 548.605 364.41 503.819C363.587 499.478 359.521 496.473 355.153 497.138L261.818 511.365Z" fill="#31FF5E"/>
<path d="M364.526 704.979C361.584 708.275 361.864 713.34 365.23 716.202C371.712 721.713 378.402 726.973 385.286 731.97C388.866 734.568 393.86 733.641 396.366 729.996L449.859 652.186C452.359 648.549 451.432 643.586 447.892 640.95C444.795 638.645 441.759 636.258 438.786 633.792C435.386 630.972 430.338 631.247 427.396 634.543L364.526 704.979Z" fill="#31FFFF"/>
<path d="M398.421 731.48C396.031 735.196 397.102 740.155 400.875 742.455C455.791 775.929 519.224 792.747 583.383 790.845C587.818 790.714 591.208 786.905 590.943 782.477L585.292 688C585.029 683.607 581.267 680.267 576.868 680.345C536.059 681.069 495.791 670.399 460.619 649.543C456.818 647.29 451.875 648.351 449.486 652.068L398.421 731.48Z" fill="#FF7D54"/>
</svg>
